<?xml version="1.0" encoding="UTF-8"?>
<svg width="13px" height="13px" viewBox="0 0 13 13" version="1.1" xmlns="http://www.w3.org/2000/svg" xmlns:xlink="http://www.w3.org/1999/xlink">
    <!-- Generator: Sketch 51.2 (57519) - http://www.bohemiancoding.com/sketch -->
    <title>delete</title>
    <desc>Created with Sketch.</desc>
    <defs></defs>
    <g id="Holo_Unlogged-User" stroke="none" stroke-width="1" fill="none" fill-rule="evenodd">
        <g id="Reg-Store-+-atachment" transform="translate(-1154.000000, -1021.000000)" fill="#424242" fill-rule="nonzero">
            <path d="M1165.81034,1033.77586 L1160.5,1028.46552 L1155.18966,1033.77586 C1154.8908,1034.07471 1154.52299,1034.07471 1154.22414,1033.77586 C1153.92529,1033.47701 1153.92529,1033.1092 1154.22414,1032.81034 L1159.53448,1027.5 L1154.22414,1022.18966 C1153.92529,1021.8908 1153.92529,1021.52299 1154.22414,1021.22414 C1154.52299,1020.92529 1154.8908,1020.92529 1155.18966,1021.22414 L1160.5,1026.53448 L1165.81034,1021.22414 C1166.1092,1020.92529 1166.47701,1020.92529 1166.77586,1021.22414 C1167.07471,1021.52299 1167.07471,1021.8908 1166.77586,1022.18966 L1161.46552,1027.5 L1166.77586,1032.81034 C1167.07471,1033.1092 1167.07471,1033.47701 1166.77586,1033.77586 C1166.47701,1034.05172 1166.08621,1034.05172 1165.81034,1033.77586 Z" id="delete"></path>
        </g>
    </g>
</svg>