<svg id="facebook-svg" data-name="facebook-svg" xmlns="http://www.w3.org/2000/svg" viewBox="0 0 14.99 33"><defs><style>.cls-1{fill:#ffffff;fill-rule:evenodd;}</style></defs><title>Монтажная область 1</title><path class="cls-1" d="M3.31,24.72c0-2.58,0-5.17,0-7.75,0-.44-.11-.57-.54-.56-.78,0-1.57,0-2.35,0C.11,16.44,0,16.35,0,16c0-1.61,0-3.22,0-4.84,0-.31.09-.41.39-.4.81,0,1.61,0,2.41,0,.46,0,.56-.15.55-.59,0-1.23,0-2.46,0-3.68A7.18,7.18,0,0,1,4.64,2.39,5.52,5.52,0,0,1,9.1.06C11,0,12.8,0,14.65,0c.26,0,.34.09.34.35q0,2.44,0,4.89c0,.29-.09.38-.37.38-.89,0-1.78,0-2.67,0a1.79,1.79,0,0,0-2,1.84c-.06,1,0,1.94,0,2.91,0,.35.2.32.42.32,1.35,0,2.71,0,4.06,0,.4,0,.53.09.48.52-.17,1.62-.31,3.24-.45,4.87,0,.36-.19.43-.51.43-1.07,0-2.14,0-3.21,0-.77,0-.69-.11-.69.69q0,7.59,0,15.18c0,.53-.13.66-.64.65-1.84,0-3.67,0-5.51,0-.52,0-.6-.17-.6-.64C3.32,29.81,3.31,27.27,3.31,24.72Z"/></svg>